<?xml version="1.0" encoding="UTF-8" standalone="no"?>
<score-partwise>
<work>
<work-title>Dragon Warrior I: Overworld Theme</work-title>
</work>
<identification>
<encoding>
<software>TuxGuitar</software>
</encoding>
<creator type="composer"/>
</identification>
<part-list>
<score-part id="P1">
<part-name>Flute</part-name>
<score-instrument id="P1-I1">
<instrument-name>Flute</instrument-name>
</score-instrument>
<midi-instrument id="P1-I1">
<midi-channel>1</midi-channel>
<midi-program>74</midi-program>
</midi-instrument>
</score-part>
<score-part id="P2">
<part-name>Clarinet</part-name>
<score-instrument id="P2-I1">
<instrument-name>Nylon Str Guitar</instrument-name>
</score-instrument>
<midi-instrument id="P2-I1">
<midi-channel>3</midi-channel>
<midi-program>25</midi-program>
</midi-instrument>
</score-part>
<score-part id="P3">
<part-name>Untitled</part-name>
<score-instrument id="P3-I1">
<instrument-name>Fingered Bass</instrument-name>
</score-instrument>
<midi-instrument id="P3-I1">
<midi-channel>5</midi-channel>
<midi-program>34</midi-program>
</midi-instrument>
</score-part>
</part-list>
<part id="P1">
<measure number="1">
<attributes>
<divisions>960</divisions>
<key>
<fifths>0</fifths>
<mode>major</mode>
</key>
<clef>
<sign>G</sign>
<line>2</line>
</clef>
<time>
<beats>4</beats>
<beat-type>4</beat-type>
</time>
<staff-details>
<staff-lines>6</staff-lines>
<staff-tuning line="1">
<tuning-step>E</tuning-step>
<tuning-octave>4</tuning-octave>
</staff-tuning>
<staff-tuning line="2">
<tuning-step>A</tuning-step>
<tuning-octave>4</tuning-octave>
</staff-tuning>
<staff-tuning line="3">
<tuning-step>D</tuning-step>
<tuning-octave>5</tuning-octave>
</staff-tuning>
<staff-tuning line="4">
<tuning-step>G</tuning-step>
<tuning-octave>5</tuning-octave>
</staff-tuning>
<staff-tuning line="5">
<tuning-step>B</tuning-step>
<tuning-octave>5</tuning-octave>
</staff-tuning>
<staff-tuning line="6">
<tuning-step>E</tuning-step>
<tuning-octave>6</tuning-octave>
</staff-tuning>
</staff-details>
</attributes>
<direction placement="above">
<sound tempo="200"/>
</direction>
<note>
<pitch>
<step>D</step>
<octave>6</octave>
</pitch>
<notations>
<technical>
<fret>3</fret>
<string>2</string>
</technical>
</notations>
<voice>1</voice>
<duration>1920</duration>
<type>half</type>
</note>
<note>
<pitch>
<step>A</step>
<octave>6</octave>
</pitch>
<notations>
<technical>
<fret>5</fret>
<string>1</string>
</technical>
</notations>
<voice>1</voice>
<duration>1920</duration>
<type>half</type>
</note>
</measure>
<measure number="2">
<note>
<pitch>
<step>G</step>
<octave>6</octave>
</pitch>
<notations>
<technical>
<fret>3</fret>
<string>1</string>
</technical>
</notations>
<voice>1</voice>
<duration>3840</duration>
<type>whole</type>
</note>
</measure>
<measure number="3">
<note>
<pitch>
<step>G</step>
<octave>6</octave>
</pitch>
<notations>
<technical>
<fret>3</fret>
<string>1</string>
</technical>
</notations>
<voice>1</voice>
<duration>1920</duration>
<type>half</type>
<tie type="stop"/>
</note>
<note>
<pitch>
<step>F</step>
<octave>6</octave>
</pitch>
<notations>
<technical>
<fret>6</fret>
<string>2</string>
</technical>
</notations>
<voice>1</voice>
<duration>960</duration>
<type>quarter</type>
</note>
<note>
<pitch>
<step>E</step>
<octave>6</octave>
</pitch>
<notations>
<technical>
<fret>5</fret>
<string>2</string>
</technical>
</notations>
<voice>1</voice>
<duration>960</duration>
<type>quarter</type>
</note>
</measure>
<measure number="4">
<note>
<pitch>
<step>D</step>
<octave>6</octave>
</pitch>
<notations>
<technical>
<fret>3</fret>
<string>2</string>
</technical>
</notations>
<voice>1</voice>
<duration>1920</duration>
<type>half</type>
</note>
<note>
<pitch>
<step>C</step>
<octave>6</octave>
</pitch>
<notations>
<technical>
<fret>5</fret>
<string>3</string>
</technical>
</notations>
<voice>1</voice>
<duration>960</duration>
<type>quarter</type>
</note>
<note>
<pitch>
<step>A</step>
<octave>5</octave>
<alter>1</alter>
</pitch>
<notations>
<technical>
<fret>3</fret>
<string>3</string>
</technical>
</notations>
<voice>1</voice>
<duration>960</duration>
<type>quarter</type>
</note>
</measure>
<measure number="5">
<note>
<pitch>
<step>C</step>
<octave>6</octave>
</pitch>
<notations>
<technical>
<fret>5</fret>
<string>3</string>
</technical>
</notations>
<voice>1</voice>
<duration>960</duration>
<type>quarter</type>
</note>
<note>
<pitch>
<step>A</step>
<octave>5</octave>
</pitch>
<notations>
<technical>
<fret>2</fret>
<string>3</string>
</technical>
</notations>
<voice>1</voice>
<duration>960</duration>
<type>quarter</type>
</note>
<note>
<pitch>
<step>E</step>
<octave>6</octave>
</pitch>
<notations>
<technical>
<fret>5</fret>
<string>2</string>
</technical>
</notations>
<voice>1</voice>
<duration>1920</duration>
<type>half</type>
</note>
</measure>
<measure number="6">
<note>
<pitch>
<step>D</step>
<octave>6</octave>
</pitch>
<notations>
<technical>
<fret>3</fret>
<string>2</string>
</technical>
</notations>
<voice>1</voice>
<duration>3840</duration>
<type>whole</type>
</note>
</measure>
<measure number="7">
<note>
<pitch>
<step>D</step>
<octave>6</octave>
</pitch>
<notations>
<technical>
<fret>3</fret>
<string>2</string>
</technical>
</notations>
<voice>1</voice>
<duration>3840</duration>
<type>whole</type>
<tie type="stop"/>
</note>
</measure>
<measure number="8">
<note>
<pitch>
<step>D</step>
<octave>6</octave>
</pitch>
<notations>
<technical>
<fret>3</fret>
<string>2</string>
</technical>
</notations>
<voice>1</voice>
<duration>3840</duration>
<type>whole</type>
<tie type="stop"/>
</note>
</measure>
<measure number="9">
<note>
<pitch>
<step>A</step>
<octave>6</octave>
</pitch>
<notations>
<technical>
<fret>5</fret>
<string>1</string>
</technical>
</notations>
<voice>1</voice>
<duration>1920</duration>
<type>half</type>
</note>
<note>
<pitch>
<step>C</step>
<octave>7</octave>
</pitch>
<notations>
<technical>
<fret>8</fret>
<string>1</string>
</technical>
</notations>
<voice>1</voice>
<duration>1920</duration>
<type>half</type>
</note>
</measure>
<measure number="10">
<note>
<pitch>
<step>B</step>
<octave>6</octave>
</pitch>
<notations>
<technical>
<fret>7</fret>
<string>1</string>
</technical>
</notations>
<voice>1</voice>
<duration>3840</duration>
<type>whole</type>
</note>
</measure>
<measure number="11">
<note>
<pitch>
<step>B</step>
<octave>6</octave>
</pitch>
<notations>
<technical>
<fret>7</fret>
<string>1</string>
</technical>
</notations>
<voice>1</voice>
<duration>1920</duration>
<type>half</type>
<tie type="stop"/>
</note>
<note>
<pitch>
<step>G</step>
<octave>6</octave>
</pitch>
<notations>
<technical>
<fret>3</fret>
<string>1</string>
</technical>
</notations>
<voice>1</voice>
<duration>960</duration>
<type>quarter</type>
</note>
<note>
<pitch>
<step>F</step>
<octave>6</octave>
</pitch>
<notations>
<technical>
<fret>1</fret>
<string>1</string>
</technical>
</notations>
<voice>1</voice>
<duration>960</duration>
<type>quarter</type>
</note>
</measure>
<measure number="12">
<note>
<pitch>
<step>E</step>
<octave>6</octave>
</pitch>
<notations>
<technical>
<fret>0</fret>
<string>1</string>
</technical>
</notations>
<voice>1</voice>
<duration>1920</duration>
<type>half</type>
</note>
<note>
<pitch>
<step>F</step>
<octave>6</octave>
</pitch>
<notations>
<technical>
<fret>1</fret>
<string>1</string>
</technical>
</notations>
<voice>1</voice>
<duration>960</duration>
<type>quarter</type>
</note>
<note>
<pitch>
<step>G</step>
<octave>6</octave>
</pitch>
<notations>
<technical>
<fret>3</fret>
<string>1</string>
</technical>
</notations>
<voice>1</voice>
<duration>960</duration>
<type>quarter</type>
</note>
</measure>
<measure number="13">
<note>
<pitch>
<step>A</step>
<octave>6</octave>
</pitch>
<notations>
<technical>
<fret>5</fret>
<string>1</string>
</technical>
</notations>
<voice>1</voice>
<duration>3840</duration>
<type>whole</type>
</note>
</measure>
<measure number="14">
<note>
<pitch>
<step>A</step>
<octave>6</octave>
</pitch>
<notations>
<technical>
<fret>5</fret>
<string>1</string>
</technical>
</notations>
<voice>1</voice>
<duration>3840</duration>
<type>whole</type>
<tie type="stop"/>
</note>
</measure>
<measure number="15">
<note>
<pitch>
<step>A</step>
<octave>6</octave>
</pitch>
<notations>
<technical>
<fret>5</fret>
<string>1</string>
</technical>
</notations>
<voice>1</voice>
<duration>3840</duration>
<type>whole</type>
<tie type="stop"/>
</note>
</measure>
<measure number="16">
<note>
<pitch>
<step>A</step>
<octave>6</octave>
</pitch>
<notations>
<technical>
<fret>5</fret>
<string>1</string>
</technical>
</notations>
<voice>1</voice>
<duration>3840</duration>
<type>whole</type>
<tie type="stop"/>
</note>
</measure>
<measure number="17">
<note>
<pitch>
<step>D</step>
<octave>6</octave>
</pitch>
<notations>
<technical>
<fret>3</fret>
<string>2</string>
</technical>
</notations>
<voice>1</voice>
<duration>1920</duration>
<type>half</type>
</note>
<note>
<pitch>
<step>A</step>
<octave>6</octave>
</pitch>
<notations>
<technical>
<fret>5</fret>
<string>1</string>
</technical>
</notations>
<voice>1</voice>
<duration>1920</duration>
<type>half</type>
</note>
</measure>
<measure number="18">
<note>
<pitch>
<step>G</step>
<octave>6</octave>
</pitch>
<notations>
<technical>
<fret>3</fret>
<string>1</string>
</technical>
</notations>
<voice>1</voice>
<duration>3840</duration>
<type>whole</type>
</note>
</measure>
<measure number="19">
<note>
<pitch>
<step>G</step>
<octave>6</octave>
</pitch>
<notations>
<technical>
<fret>3</fret>
<string>1</string>
</technical>
</notations>
<voice>1</voice>
<duration>1920</duration>
<type>half</type>
<tie type="stop"/>
</note>
<note>
<pitch>
<step>F</step>
<octave>6</octave>
</pitch>
<notations>
<technical>
<fret>6</fret>
<string>2</string>
</technical>
</notations>
<voice>1</voice>
<duration>960</duration>
<type>quarter</type>
</note>
<note>
<pitch>
<step>E</step>
<octave>6</octave>
</pitch>
<notations>
<technical>
<fret>5</fret>
<string>2</string>
</technical>
</notations>
<voice>1</voice>
<duration>960</duration>
<type>quarter</type>
</note>
</measure>
<measure number="20">
<note>
<pitch>
<step>D</step>
<octave>6</octave>
</pitch>
<notations>
<technical>
<fret>3</fret>
<string>2</string>
</technical>
</notations>
<voice>1</voice>
<duration>1920</duration>
<type>half</type>
</note>
<note>
<pitch>
<step>C</step>
<octave>6</octave>
</pitch>
<notations>
<technical>
<fret>5</fret>
<string>3</string>
</technical>
</notations>
<voice>1</voice>
<duration>960</duration>
<type>quarter</type>
</note>
<note>
<pitch>
<step>A</step>
<octave>5</octave>
<alter>1</alter>
</pitch>
<notations>
<technical>
<fret>3</fret>
<string>3</string>
</technical>
</notations>
<voice>1</voice>
<duration>960</duration>
<type>quarter</type>
</note>
</measure>
<measure number="21">
<note>
<pitch>
<step>C</step>
<octave>6</octave>
</pitch>
<notations>
<technical>
<fret>5</fret>
<string>3</string>
</technical>
</notations>
<voice>1</voice>
<duration>960</duration>
<type>quarter</type>
</note>
<note>
<pitch>
<step>A</step>
<octave>5</octave>
</pitch>
<notations>
<technical>
<fret>2</fret>
<string>3</string>
</technical>
</notations>
<voice>1</voice>
<duration>960</duration>
<type>quarter</type>
</note>
<note>
<pitch>
<step>E</step>
<octave>6</octave>
</pitch>
<notations>
<technical>
<fret>5</fret>
<string>2</string>
</technical>
</notations>
<voice>1</voice>
<duration>1920</duration>
<type>half</type>
</note>
</measure>
<measure number="22">
<note>
<pitch>
<step>D</step>
<octave>6</octave>
</pitch>
<notations>
<technical>
<fret>3</fret>
<string>2</string>
</technical>
</notations>
<voice>1</voice>
<duration>3840</duration>
<type>whole</type>
</note>
</measure>
<measure number="23">
<note>
<pitch>
<step>D</step>
<octave>6</octave>
</pitch>
<notations>
<technical>
<fret>3</fret>
<string>2</string>
</technical>
</notations>
<voice>1</voice>
<duration>3840</duration>
<type>whole</type>
<tie type="stop"/>
</note>
</measure>
<measure number="24">
<note>
<pitch>
<step>D</step>
<octave>6</octave>
</pitch>
<notations>
<technical>
<fret>3</fret>
<string>2</string>
</technical>
</notations>
<voice>1</voice>
<duration>3840</duration>
<type>whole</type>
<tie type="stop"/>
</note>
</measure>
<measure number="25">
<note>
<pitch>
<step>A</step>
<octave>6</octave>
</pitch>
<notations>
<technical>
<fret>5</fret>
<string>1</string>
</technical>
</notations>
<voice>1</voice>
<duration>1920</duration>
<type>half</type>
</note>
<note>
<pitch>
<step>C</step>
<octave>7</octave>
</pitch>
<notations>
<technical>
<fret>8</fret>
<string>1</string>
</technical>
</notations>
<voice>1</voice>
<duration>1920</duration>
<type>half</type>
</note>
</measure>
<measure number="26">
<note>
<pitch>
<step>B</step>
<octave>6</octave>
</pitch>
<notations>
<technical>
<fret>7</fret>
<string>1</string>
</technical>
</notations>
<voice>1</voice>
<duration>3840</duration>
<type>whole</type>
</note>
</measure>
<measure number="27">
<note>
<pitch>
<step>B</step>
<octave>6</octave>
</pitch>
<notations>
<technical>
<fret>7</fret>
<string>1</string>
</technical>
</notations>
<voice>1</voice>
<duration>1920</duration>
<type>half</type>
<tie type="stop"/>
</note>
<note>
<pitch>
<step>G</step>
<octave>6</octave>
</pitch>
<notations>
<technical>
<fret>3</fret>
<string>1</string>
</technical>
</notations>
<voice>1</voice>
<duration>960</duration>
<type>quarter</type>
</note>
<note>
<pitch>
<step>F</step>
<octave>6</octave>
</pitch>
<notations>
<technical>
<fret>1</fret>
<string>1</string>
</technical>
</notations>
<voice>1</voice>
<duration>960</duration>
<type>quarter</type>
</note>
</measure>
<measure number="28">
<note>
<pitch>
<step>E</step>
<octave>6</octave>
</pitch>
<notations>
<technical>
<fret>0</fret>
<string>1</string>
</technical>
</notations>
<voice>1</voice>
<duration>1920</duration>
<type>half</type>
</note>
<note>
<pitch>
<step>F</step>
<octave>6</octave>
</pitch>
<notations>
<technical>
<fret>1</fret>
<string>1</string>
</technical>
</notations>
<voice>1</voice>
<duration>960</duration>
<type>quarter</type>
</note>
<note>
<pitch>
<step>G</step>
<octave>6</octave>
</pitch>
<notations>
<technical>
<fret>3</fret>
<string>1</string>
</technical>
</notations>
<voice>1</voice>
<duration>960</duration>
<type>quarter</type>
</note>
</measure>
<measure number="29">
<note>
<pitch>
<step>A</step>
<octave>6</octave>
</pitch>
<notations>
<technical>
<fret>5</fret>
<string>1</string>
</technical>
</notations>
<voice>1</voice>
<duration>3840</duration>
<type>whole</type>
</note>
</measure>
<measure number="30">
<note>
<pitch>
<step>A</step>
<octave>6</octave>
</pitch>
<notations>
<technical>
<fret>5</fret>
<string>1</string>
</technical>
</notations>
<voice>1</voice>
<duration>3840</duration>
<type>whole</type>
<tie type="stop"/>
</note>
</measure>
<measure number="31">
<note>
<pitch>
<step>A</step>
<octave>6</octave>
</pitch>
<notations>
<technical>
<fret>5</fret>
<string>1</string>
</technical>
</notations>
<voice>1</voice>
<duration>3840</duration>
<type>whole</type>
<tie type="stop"/>
</note>
</measure>
<measure number="32">
<note>
<pitch>
<step>A</step>
<octave>6</octave>
</pitch>
<notations>
<technical>
<fret>5</fret>
<string>1</string>
</technical>
</notations>
<voice>1</voice>
<duration>3840</duration>
<type>whole</type>
<tie type="stop"/>
</note>
</measure>
</part>
<part id="P2">
<measure number="1">
<attributes>
<divisions>960</divisions>
<key>
<fifths>0</fifths>
<mode>major</mode>
</key>
<clef>
<sign>G</sign>
<line>2</line>
</clef>
<time>
<beats>4</beats>
<beat-type>4</beat-type>
</time>
<staff-details>
<staff-lines>6</staff-lines>
<staff-tuning line="1">
<tuning-step>E</tuning-step>
<tuning-octave>3</tuning-octave>
</staff-tuning>
<staff-tuning line="2">
<tuning-step>A</tuning-step>
<tuning-octave>3</tuning-octave>
</staff-tuning>
<staff-tuning line="3">
<tuning-step>D</tuning-step>
<tuning-octave>4</tuning-octave>
</staff-tuning>
<staff-tuning line="4">
<tuning-step>G</tuning-step>
<tuning-octave>4</tuning-octave>
</staff-tuning>
<staff-tuning line="5">
<tuning-step>B</tuning-step>
<tuning-octave>4</tuning-octave>
</staff-tuning>
<staff-tuning line="6">
<tuning-step>E</tuning-step>
<tuning-octave>5</tuning-octave>
</staff-tuning>
</staff-details>
</attributes>
<direction placement="above">
<sound tempo="200"/>
</direction>
<note>
<pitch>
<step>D</step>
<octave>5</octave>
</pitch>
<notations>
<technical>
<fret>7</fret>
<string>3</string>
</technical>
</notations>
<voice>1</voice>
<duration>960</duration>
<type>quarter</type>
</note>
<note>
<pitch>
<step>A</step>
<octave>5</octave>
</pitch>
<notations>
<technical>
<fret>5</fret>
<string>1</string>
</technical>
</notations>
<voice>1</voice>
<duration>960</duration>
<type>quarter</type>
</note>
<note>
<pitch>
<step>F</step>
<octave>5</octave>
</pitch>
<notations>
<technical>
<fret>6</fret>
<string>2</string>
</technical>
</notations>
<voice>1</voice>
<duration>960</duration>
<type>quarter</type>
</note>
<note>
<pitch>
<step>A</step>
<octave>5</octave>
</pitch>
<notations>
<technical>
<fret>5</fret>
<string>1</string>
</technical>
</notations>
<voice>1</voice>
<duration>960</duration>
<type>quarter</type>
</note>
</measure>
<measure number="2">
<note>
<pitch>
<step>D</step>
<octave>5</octave>
</pitch>
<notations>
<technical>
<fret>7</fret>
<string>3</string>
</technical>
</notations>
<voice>1</voice>
<duration>960</duration>
<type>quarter</type>
</note>
<note>
<pitch>
<step>B</step>
<octave>5</octave>
</pitch>
<notations>
<technical>
<fret>7</fret>
<string>1</string>
</technical>
</notations>
<voice>1</voice>
<duration>960</duration>
<type>quarter</type>
</note>
<note>
<pitch>
<step>G</step>
<octave>5</octave>
</pitch>
<notations>
<technical>
<fret>8</fret>
<string>2</string>
</technical>
</notations>
<voice>1</voice>
<duration>960</duration>
<type>quarter</type>
</note>
<note>
<pitch>
<step>B</step>
<octave>5</octave>
</pitch>
<notations>
<technical>
<fret>7</fret>
<string>1</string>
</technical>
</notations>
<voice>1</voice>
<duration>960</duration>
<type>quarter</type>
</note>
</measure>
<measure number="3">
<note>
<pitch>
<step>D</step>
<octave>5</octave>
</pitch>
<notations>
<technical>
<fret>7</fret>
<string>3</string>
</technical>
</notations>
<voice>1</voice>
<duration>960</duration>
<type>quarter</type>
</note>
<note>
<pitch>
<step>C</step>
<octave>6</octave>
</pitch>
<notations>
<technical>
<fret>8</fret>
<string>1</string>
</technical>
</notations>
<voice>1</voice>
<duration>960</duration>
<type>quarter</type>
</note>
<note>
<pitch>
<step>A</step>
<octave>5</octave>
</pitch>
<notations>
<technical>
<fret>10</fret>
<string>2</string>
</technical>
</notations>
<voice>1</voice>
<duration>960</duration>
<type>quarter</type>
</note>
<note>
<pitch>
<step>C</step>
<octave>6</octave>
</pitch>
<notations>
<technical>
<fret>8</fret>
<string>1</string>
</technical>
</notations>
<voice>1</voice>
<duration>960</duration>
<type>quarter</type>
</note>
</measure>
<measure number="4">
<note>
<pitch>
<step>D</step>
<octave>5</octave>
</pitch>
<notations>
<technical>
<fret>7</fret>
<string>3</string>
</technical>
</notations>
<voice>1</voice>
<duration>960</duration>
<type>quarter</type>
</note>
<note>
<pitch>
<step>A</step>
<octave>5</octave>
<alter>1</alter>
</pitch>
<notations>
<technical>
<fret>6</fret>
<string>1</string>
</technical>
</notations>
<voice>1</voice>
<duration>960</duration>
<type>quarter</type>
</note>
<note>
<pitch>
<step>F</step>
<octave>5</octave>
</pitch>
<notations>
<technical>
<fret>6</fret>
<string>2</string>
</technical>
</notations>
<voice>1</voice>
<duration>960</duration>
<type>quarter</type>
</note>
<note>
<pitch>
<step>A</step>
<octave>5</octave>
<alter>1</alter>
</pitch>
<notations>
<technical>
<fret>6</fret>
<string>1</string>
</technical>
</notations>
<voice>1</voice>
<duration>960</duration>
<type>quarter</type>
</note>
</measure>
<measure number="5">
<note>
<pitch>
<step>E</step>
<octave>5</octave>
</pitch>
<notations>
<technical>
<fret>5</fret>
<string>2</string>
</technical>
</notations>
<voice>1</voice>
<duration>960</duration>
<type>quarter</type>
</note>
<note>
<pitch>
<step>C</step>
<octave>6</octave>
</pitch>
<notations>
<technical>
<fret>8</fret>
<string>1</string>
</technical>
</notations>
<voice>1</voice>
<duration>960</duration>
<type>quarter</type>
</note>
<note>
<pitch>
<step>A</step>
<octave>5</octave>
</pitch>
<notations>
<technical>
<fret>5</fret>
<string>1</string>
</technical>
</notations>
<voice>1</voice>
<duration>960</duration>
<type>quarter</type>
</note>
<note>
<pitch>
<step>C</step>
<octave>6</octave>
</pitch>
<notations>
<technical>
<fret>8</fret>
<string>1</string>
</technical>
</notations>
<voice>1</voice>
<duration>960</duration>
<type>quarter</type>
</note>
</measure>
<measure number="6">
<note>
<pitch>
<step>D</step>
<octave>5</octave>
</pitch>
<notations>
<technical>
<fret>3</fret>
<string>2</string>
</technical>
</notations>
<voice>1</voice>
<duration>960</duration>
<type>quarter</type>
</note>
<note>
<pitch>
<step>A</step>
<octave>5</octave>
</pitch>
<notations>
<technical>
<fret>5</fret>
<string>1</string>
</technical>
</notations>
<voice>1</voice>
<duration>960</duration>
<type>quarter</type>
</note>
<note>
<pitch>
<step>F</step>
<octave>5</octave>
<alter>1</alter>
</pitch>
<notations>
<technical>
<fret>2</fret>
<string>1</string>
</technical>
</notations>
<voice>1</voice>
<duration>960</duration>
<type>quarter</type>
</note>
<note>
<pitch>
<step>A</step>
<octave>5</octave>
</pitch>
<notations>
<technical>
<fret>5</fret>
<string>1</string>
</technical>
</notations>
<voice>1</voice>
<duration>960</duration>
<type>quarter</type>
</note>
</measure>
<measure number="7">
<note>
<pitch>
<step>D</step>
<octave>5</octave>
</pitch>
<notations>
<technical>
<fret>3</fret>
<string>2</string>
</technical>
</notations>
<voice>1</voice>
<duration>960</duration>
<type>quarter</type>
</note>
<note>
<pitch>
<step>A</step>
<octave>5</octave>
</pitch>
<notations>
<technical>
<fret>5</fret>
<string>1</string>
</technical>
</notations>
<voice>1</voice>
<duration>960</duration>
<type>quarter</type>
</note>
<note>
<pitch>
<step>F</step>
<octave>5</octave>
<alter>1</alter>
</pitch>
<notations>
<technical>
<fret>2</fret>
<string>1</string>
</technical>
</notations>
<voice>1</voice>
<duration>960</duration>
<type>quarter</type>
</note>
<note>
<pitch>
<step>A</step>
<octave>5</octave>
</pitch>
<notations>
<technical>
<fret>5</fret>
<string>1</string>
</technical>
</notations>
<voice>1</voice>
<duration>960</duration>
<type>quarter</type>
</note>
</measure>
<measure number="8">
<note>
<pitch>
<step>G</step>
<octave>5</octave>
</pitch>
<notations>
<technical>
<fret>8</fret>
<string>2</string>
</technical>
</notations>
<voice>1</voice>
<duration>960</duration>
<type>quarter</type>
</note>
<note>
<pitch>
<step>A</step>
<octave>5</octave>
<alter>1</alter>
</pitch>
<notations>
<technical>
<fret>6</fret>
<string>1</string>
</technical>
</notations>
<voice>1</voice>
<duration>960</duration>
<type>quarter</type>
</note>
<note>
<pitch>
<step>A</step>
<octave>5</octave>
</pitch>
<notations>
<technical>
<fret>10</fret>
<string>2</string>
</technical>
</notations>
<voice>1</voice>
<duration>960</duration>
<type>quarter</type>
</note>
<note>
<pitch>
<step>C</step>
<octave>6</octave>
</pitch>
<notations>
<technical>
<fret>8</fret>
<string>1</string>
</technical>
</notations>
<voice>1</voice>
<duration>960</duration>
<type>quarter</type>
</note>
</measure>
<measure number="9">
<note>
<pitch>
<step>D</step>
<octave>5</octave>
</pitch>
<notations>
<technical>
<fret>7</fret>
<string>3</string>
</technical>
</notations>
<voice>1</voice>
<duration>960</duration>
<type>quarter</type>
</note>
<note>
<pitch>
<step>C</step>
<octave>6</octave>
</pitch>
<notations>
<technical>
<fret>8</fret>
<string>1</string>
</technical>
</notations>
<voice>1</voice>
<duration>960</duration>
<type>quarter</type>
</note>
<note>
<pitch>
<step>A</step>
<octave>5</octave>
</pitch>
<notations>
<technical>
<fret>10</fret>
<string>2</string>
</technical>
</notations>
<voice>1</voice>
<duration>960</duration>
<type>quarter</type>
</note>
<note>
<pitch>
<step>C</step>
<octave>6</octave>
</pitch>
<notations>
<technical>
<fret>8</fret>
<string>1</string>
</technical>
</notations>
<voice>1</voice>
<duration>960</duration>
<type>quarter</type>
</note>
</measure>
<measure number="10">
<note>
<pitch>
<step>D</step>
<octave>5</octave>
</pitch>
<notations>
<technical>
<fret>7</fret>
<string>3</string>
</technical>
</notations>
<voice>1</voice>
<duration>960</duration>
<type>quarter</type>
</note>
<note>
<pitch>
<step>B</step>
<octave>5</octave>
</pitch>
<notations>
<technical>
<fret>7</fret>
<string>1</string>
</technical>
</notations>
<voice>1</voice>
<duration>960</duration>
<type>quarter</type>
</note>
<note>
<pitch>
<step>G</step>
<octave>5</octave>
</pitch>
<notations>
<technical>
<fret>8</fret>
<string>2</string>
</technical>
</notations>
<voice>1</voice>
<duration>960</duration>
<type>quarter</type>
</note>
<note>
<pitch>
<step>B</step>
<octave>5</octave>
</pitch>
<notations>
<technical>
<fret>7</fret>
<string>1</string>
</technical>
</notations>
<voice>1</voice>
<duration>960</duration>
<type>quarter</type>
</note>
</measure>
<measure number="11">
<note>
<pitch>
<step>D</step>
<octave>5</octave>
</pitch>
<notations>
<technical>
<fret>7</fret>
<string>3</string>
</technical>
</notations>
<voice>1</voice>
<duration>960</duration>
<type>quarter</type>
</note>
<note>
<pitch>
<step>B</step>
<octave>5</octave>
</pitch>
<notations>
<technical>
<fret>7</fret>
<string>1</string>
</technical>
</notations>
<voice>1</voice>
<duration>960</duration>
<type>quarter</type>
</note>
<note>
<pitch>
<step>G</step>
<octave>5</octave>
</pitch>
<notations>
<technical>
<fret>8</fret>
<string>2</string>
</technical>
</notations>
<voice>1</voice>
<duration>960</duration>
<type>quarter</type>
</note>
<note>
<pitch>
<step>B</step>
<octave>5</octave>
</pitch>
<notations>
<technical>
<fret>7</fret>
<string>1</string>
</technical>
</notations>
<voice>1</voice>
<duration>960</duration>
<type>quarter</type>
</note>
</measure>
<measure number="12">
<note>
<pitch>
<step>C</step>
<octave>5</octave>
<alter>1</alter>
</pitch>
<notations>
<technical>
<fret>6</fret>
<string>3</string>
</technical>
</notations>
<voice>1</voice>
<duration>960</duration>
<type>quarter</type>
</note>
<note>
<pitch>
<step>A</step>
<octave>5</octave>
<alter>1</alter>
</pitch>
<notations>
<technical>
<fret>6</fret>
<string>1</string>
</technical>
</notations>
<voice>1</voice>
<duration>960</duration>
<type>quarter</type>
</note>
<note>
<pitch>
<step>G</step>
<octave>5</octave>
</pitch>
<notations>
<technical>
<fret>8</fret>
<string>2</string>
</technical>
</notations>
<voice>1</voice>
<duration>960</duration>
<type>quarter</type>
</note>
<note>
<pitch>
<step>A</step>
<octave>5</octave>
<alter>1</alter>
</pitch>
<notations>
<technical>
<fret>6</fret>
<string>1</string>
</technical>
</notations>
<voice>1</voice>
<duration>960</duration>
<type>quarter</type>
</note>
</measure>
<measure number="13">
<note>
<pitch>
<step>C</step>
<octave>5</octave>
<alter>1</alter>
</pitch>
<notations>
<technical>
<fret>2</fret>
<string>2</string>
</technical>
</notations>
<voice>1</voice>
<duration>960</duration>
<type>quarter</type>
</note>
<note>
<pitch>
<step>A</step>
<octave>5</octave>
</pitch>
<notations>
<technical>
<fret>5</fret>
<string>1</string>
</technical>
</notations>
<voice>1</voice>
<duration>960</duration>
<type>quarter</type>
</note>
<note>
<pitch>
<step>E</step>
<octave>5</octave>
</pitch>
<notations>
<technical>
<fret>5</fret>
<string>2</string>
</technical>
</notations>
<voice>1</voice>
<duration>960</duration>
<type>quarter</type>
</note>
<note>
<pitch>
<step>A</step>
<octave>5</octave>
</pitch>
<notations>
<technical>
<fret>5</fret>
<string>1</string>
</technical>
</notations>
<voice>1</voice>
<duration>960</duration>
<type>quarter</type>
</note>
</measure>
<measure number="14">
<note>
<pitch>
<step>D</step>
<octave>5</octave>
</pitch>
<notations>
<technical>
<fret>3</fret>
<string>2</string>
</technical>
</notations>
<voice>1</voice>
<duration>960</duration>
<type>quarter</type>
</note>
<note>
<pitch>
<step>A</step>
<octave>5</octave>
</pitch>
<notations>
<technical>
<fret>5</fret>
<string>1</string>
</technical>
</notations>
<voice>1</voice>
<duration>960</duration>
<type>quarter</type>
</note>
<note>
<pitch>
<step>E</step>
<octave>5</octave>
</pitch>
<notations>
<technical>
<fret>5</fret>
<string>2</string>
</technical>
</notations>
<voice>1</voice>
<duration>960</duration>
<type>quarter</type>
</note>
<note>
<pitch>
<step>A</step>
<octave>5</octave>
</pitch>
<notations>
<technical>
<fret>5</fret>
<string>1</string>
</technical>
</notations>
<voice>1</voice>
<duration>960</duration>
<type>quarter</type>
</note>
</measure>
<measure number="15">
<note>
<pitch>
<step>C</step>
<octave>5</octave>
<alter>1</alter>
</pitch>
<notations>
<technical>
<fret>2</fret>
<string>2</string>
</technical>
</notations>
<voice>1</voice>
<duration>960</duration>
<type>quarter</type>
</note>
<note>
<pitch>
<step>A</step>
<octave>5</octave>
</pitch>
<notations>
<technical>
<fret>5</fret>
<string>1</string>
</technical>
</notations>
<voice>1</voice>
<duration>960</duration>
<type>quarter</type>
</note>
<note>
<pitch>
<step>E</step>
<octave>5</octave>
</pitch>
<notations>
<technical>
<fret>5</fret>
<string>2</string>
</technical>
</notations>
<voice>1</voice>
<duration>960</duration>
<type>quarter</type>
</note>
<note>
<pitch>
<step>A</step>
<octave>5</octave>
</pitch>
<notations>
<technical>
<fret>5</fret>
<string>1</string>
</technical>
</notations>
<voice>1</voice>
<duration>960</duration>
<type>quarter</type>
</note>
</measure>
<measure number="16">
<note>
<pitch>
<step>B</step>
<octave>4</octave>
</pitch>
<notations>
<technical>
<fret>0</fret>
<string>2</string>
</technical>
</notations>
<voice>1</voice>
<duration>960</duration>
<type>quarter</type>
</note>
<note>
<pitch>
<step>A</step>
<octave>5</octave>
</pitch>
<notations>
<technical>
<fret>5</fret>
<string>1</string>
</technical>
</notations>
<voice>1</voice>
<duration>960</duration>
<type>quarter</type>
</note>
<note>
<pitch>
<step>C</step>
<octave>5</octave>
<alter>1</alter>
</pitch>
<notations>
<technical>
<fret>2</fret>
<string>2</string>
</technical>
</notations>
<voice>1</voice>
<duration>960</duration>
<type>quarter</type>
</note>
<note>
<pitch>
<step>A</step>
<octave>5</octave>
</pitch>
<notations>
<technical>
<fret>5</fret>
<string>1</string>
</technical>
</notations>
<voice>1</voice>
<duration>960</duration>
<type>quarter</type>
</note>
</measure>
<measure number="17">
<note>
<pitch>
<step>D</step>
<octave>5</octave>
</pitch>
<notations>
<technical>
<fret>7</fret>
<string>3</string>
</technical>
</notations>
<voice>1</voice>
<duration>960</duration>
<type>quarter</type>
</note>
<note>
<pitch>
<step>A</step>
<octave>5</octave>
</pitch>
<notations>
<technical>
<fret>5</fret>
<string>1</string>
</technical>
</notations>
<voice>1</voice>
<duration>960</duration>
<type>quarter</type>
</note>
<note>
<pitch>
<step>F</step>
<octave>5</octave>
</pitch>
<notations>
<technical>
<fret>6</fret>
<string>2</string>
</technical>
</notations>
<voice>1</voice>
<duration>960</duration>
<type>quarter</type>
</note>
<note>
<pitch>
<step>A</step>
<octave>5</octave>
</pitch>
<notations>
<technical>
<fret>5</fret>
<string>1</string>
</technical>
</notations>
<voice>1</voice>
<duration>960</duration>
<type>quarter</type>
</note>
</measure>
<measure number="18">
<note>
<pitch>
<step>D</step>
<octave>5</octave>
</pitch>
<notations>
<technical>
<fret>7</fret>
<string>3</string>
</technical>
</notations>
<voice>1</voice>
<duration>960</duration>
<type>quarter</type>
</note>
<note>
<pitch>
<step>B</step>
<octave>5</octave>
</pitch>
<notations>
<technical>
<fret>7</fret>
<string>1</string>
</technical>
</notations>
<voice>1</voice>
<duration>960</duration>
<type>quarter</type>
</note>
<note>
<pitch>
<step>G</step>
<octave>5</octave>
</pitch>
<notations>
<technical>
<fret>8</fret>
<string>2</string>
</technical>
</notations>
<voice>1</voice>
<duration>960</duration>
<type>quarter</type>
</note>
<note>
<pitch>
<step>B</step>
<octave>5</octave>
</pitch>
<notations>
<technical>
<fret>7</fret>
<string>1</string>
</technical>
</notations>
<voice>1</voice>
<duration>960</duration>
<type>quarter</type>
</note>
</measure>
<measure number="19">
<note>
<pitch>
<step>D</step>
<octave>5</octave>
</pitch>
<notations>
<technical>
<fret>7</fret>
<string>3</string>
</technical>
</notations>
<voice>1</voice>
<duration>960</duration>
<type>quarter</type>
</note>
<note>
<pitch>
<step>C</step>
<octave>6</octave>
</pitch>
<notations>
<technical>
<fret>8</fret>
<string>1</string>
</technical>
</notations>
<voice>1</voice>
<duration>960</duration>
<type>quarter</type>
</note>
<note>
<pitch>
<step>A</step>
<octave>5</octave>
</pitch>
<notations>
<technical>
<fret>10</fret>
<string>2</string>
</technical>
</notations>
<voice>1</voice>
<duration>960</duration>
<type>quarter</type>
</note>
<note>
<pitch>
<step>C</step>
<octave>6</octave>
</pitch>
<notations>
<technical>
<fret>8</fret>
<string>1</string>
</technical>
</notations>
<voice>1</voice>
<duration>960</duration>
<type>quarter</type>
</note>
</measure>
<measure number="20">
<note>
<pitch>
<step>D</step>
<octave>5</octave>
</pitch>
<notations>
<technical>
<fret>7</fret>
<string>3</string>
</technical>
</notations>
<voice>1</voice>
<duration>960</duration>
<type>quarter</type>
</note>
<note>
<pitch>
<step>A</step>
<octave>5</octave>
<alter>1</alter>
</pitch>
<notations>
<technical>
<fret>6</fret>
<string>1</string>
</technical>
</notations>
<voice>1</voice>
<duration>960</duration>
<type>quarter</type>
</note>
<note>
<pitch>
<step>F</step>
<octave>5</octave>
</pitch>
<notations>
<technical>
<fret>6</fret>
<string>2</string>
</technical>
</notations>
<voice>1</voice>
<duration>960</duration>
<type>quarter</type>
</note>
<note>
<pitch>
<step>A</step>
<octave>5</octave>
<alter>1</alter>
</pitch>
<notations>
<technical>
<fret>6</fret>
<string>1</string>
</technical>
</notations>
<voice>1</voice>
<duration>960</duration>
<type>quarter</type>
</note>
</measure>
<measure number="21">
<note>
<pitch>
<step>E</step>
<octave>5</octave>
</pitch>
<notations>
<technical>
<fret>5</fret>
<string>2</string>
</technical>
</notations>
<voice>1</voice>
<duration>960</duration>
<type>quarter</type>
</note>
<note>
<pitch>
<step>C</step>
<octave>6</octave>
</pitch>
<notations>
<technical>
<fret>8</fret>
<string>1</string>
</technical>
</notations>
<voice>1</voice>
<duration>960</duration>
<type>quarter</type>
</note>
<note>
<pitch>
<step>A</step>
<octave>5</octave>
</pitch>
<notations>
<technical>
<fret>5</fret>
<string>1</string>
</technical>
</notations>
<voice>1</voice>
<duration>960</duration>
<type>quarter</type>
</note>
<note>
<pitch>
<step>C</step>
<octave>6</octave>
</pitch>
<notations>
<technical>
<fret>8</fret>
<string>1</string>
</technical>
</notations>
<voice>1</voice>
<duration>960</duration>
<type>quarter</type>
</note>
</measure>
<measure number="22">
<note>
<pitch>
<step>D</step>
<octave>5</octave>
</pitch>
<notations>
<technical>
<fret>3</fret>
<string>2</string>
</technical>
</notations>
<voice>1</voice>
<duration>960</duration>
<type>quarter</type>
</note>
<note>
<pitch>
<step>A</step>
<octave>5</octave>
</pitch>
<notations>
<technical>
<fret>5</fret>
<string>1</string>
</technical>
</notations>
<voice>1</voice>
<duration>960</duration>
<type>quarter</type>
</note>
<note>
<pitch>
<step>F</step>
<octave>5</octave>
<alter>1</alter>
</pitch>
<notations>
<technical>
<fret>2</fret>
<string>1</string>
</technical>
</notations>
<voice>1</voice>
<duration>960</duration>
<type>quarter</type>
</note>
<note>
<pitch>
<step>A</step>
<octave>5</octave>
</pitch>
<notations>
<technical>
<fret>5</fret>
<string>1</string>
</technical>
</notations>
<voice>1</voice>
<duration>960</duration>
<type>quarter</type>
</note>
</measure>
<measure number="23">
<note>
<pitch>
<step>D</step>
<octave>5</octave>
</pitch>
<notations>
<technical>
<fret>3</fret>
<string>2</string>
</technical>
</notations>
<voice>1</voice>
<duration>960</duration>
<type>quarter</type>
</note>
<note>
<pitch>
<step>A</step>
<octave>5</octave>
</pitch>
<notations>
<technical>
<fret>5</fret>
<string>1</string>
</technical>
</notations>
<voice>1</voice>
<duration>960</duration>
<type>quarter</type>
</note>
<note>
<pitch>
<step>F</step>
<octave>5</octave>
<alter>1</alter>
</pitch>
<notations>
<technical>
<fret>2</fret>
<string>1</string>
</technical>
</notations>
<voice>1</voice>
<duration>960</duration>
<type>quarter</type>
</note>
<note>
<pitch>
<step>A</step>
<octave>5</octave>
</pitch>
<notations>
<technical>
<fret>5</fret>
<string>1</string>
</technical>
</notations>
<voice>1</voice>
<duration>960</duration>
<type>quarter</type>
</note>
</measure>
<measure number="24">
<note>
<pitch>
<step>G</step>
<octave>5</octave>
</pitch>
<notations>
<technical>
<fret>8</fret>
<string>2</string>
</technical>
</notations>
<voice>1</voice>
<duration>960</duration>
<type>quarter</type>
</note>
<note>
<pitch>
<step>A</step>
<octave>5</octave>
<alter>1</alter>
</pitch>
<notations>
<technical>
<fret>6</fret>
<string>1</string>
</technical>
</notations>
<voice>1</voice>
<duration>960</duration>
<type>quarter</type>
</note>
<note>
<pitch>
<step>A</step>
<octave>5</octave>
</pitch>
<notations>
<technical>
<fret>10</fret>
<string>2</string>
</technical>
</notations>
<voice>1</voice>
<duration>960</duration>
<type>quarter</type>
</note>
<note>
<pitch>
<step>C</step>
<octave>6</octave>
</pitch>
<notations>
<technical>
<fret>8</fret>
<string>1</string>
</technical>
</notations>
<voice>1</voice>
<duration>960</duration>
<type>quarter</type>
</note>
</measure>
<measure number="25">
<note>
<pitch>
<step>D</step>
<octave>5</octave>
</pitch>
<notations>
<technical>
<fret>7</fret>
<string>3</string>
</technical>
</notations>
<voice>1</voice>
<duration>960</duration>
<type>quarter</type>
</note>
<note>
<pitch>
<step>C</step>
<octave>6</octave>
</pitch>
<notations>
<technical>
<fret>8</fret>
<string>1</string>
</technical>
</notations>
<voice>1</voice>
<duration>960</duration>
<type>quarter</type>
</note>
<note>
<pitch>
<step>A</step>
<octave>5</octave>
</pitch>
<notations>
<technical>
<fret>10</fret>
<string>2</string>
</technical>
</notations>
<voice>1</voice>
<duration>960</duration>
<type>quarter</type>
</note>
<note>
<pitch>
<step>C</step>
<octave>6</octave>
</pitch>
<notations>
<technical>
<fret>8</fret>
<string>1</string>
</technical>
</notations>
<voice>1</voice>
<duration>960</duration>
<type>quarter</type>
</note>
</measure>
<measure number="26">
<note>
<pitch>
<step>D</step>
<octave>5</octave>
</pitch>
<notations>
<technical>
<fret>7</fret>
<string>3</string>
</technical>
</notations>
<voice>1</voice>
<duration>960</duration>
<type>quarter</type>
</note>
<note>
<pitch>
<step>B</step>
<octave>5</octave>
</pitch>
<notations>
<technical>
<fret>7</fret>
<string>1</string>
</technical>
</notations>
<voice>1</voice>
<duration>960</duration>
<type>quarter</type>
</note>
<note>
<pitch>
<step>G</step>
<octave>5</octave>
</pitch>
<notations>
<technical>
<fret>8</fret>
<string>2</string>
</technical>
</notations>
<voice>1</voice>
<duration>960</duration>
<type>quarter</type>
</note>
<note>
<pitch>
<step>B</step>
<octave>5</octave>
</pitch>
<notations>
<technical>
<fret>7</fret>
<string>1</string>
</technical>
</notations>
<voice>1</voice>
<duration>960</duration>
<type>quarter</type>
</note>
</measure>
<measure number="27">
<note>
<pitch>
<step>D</step>
<octave>5</octave>
</pitch>
<notations>
<technical>
<fret>7</fret>
<string>3</string>
</technical>
</notations>
<voice>1</voice>
<duration>960</duration>
<type>quarter</type>
</note>
<note>
<pitch>
<step>B</step>
<octave>5</octave>
</pitch>
<notations>
<technical>
<fret>7</fret>
<string>1</string>
</technical>
</notations>
<voice>1</voice>
<duration>960</duration>
<type>quarter</type>
</note>
<note>
<pitch>
<step>G</step>
<octave>5</octave>
</pitch>
<notations>
<technical>
<fret>8</fret>
<string>2</string>
</technical>
</notations>
<voice>1</voice>
<duration>960</duration>
<type>quarter</type>
</note>
<note>
<pitch>
<step>B</step>
<octave>5</octave>
</pitch>
<notations>
<technical>
<fret>7</fret>
<string>1</string>
</technical>
</notations>
<voice>1</voice>
<duration>960</duration>
<type>quarter</type>
</note>
</measure>
<measure number="28">
<note>
<pitch>
<step>C</step>
<octave>5</octave>
<alter>1</alter>
</pitch>
<notations>
<technical>
<fret>6</fret>
<string>3</string>
</technical>
</notations>
<voice>1</voice>
<duration>960</duration>
<type>quarter</type>
</note>
<note>
<pitch>
<step>A</step>
<octave>5</octave>
<alter>1</alter>
</pitch>
<notations>
<technical>
<fret>6</fret>
<string>1</string>
</technical>
</notations>
<voice>1</voice>
<duration>960</duration>
<type>quarter</type>
</note>
<note>
<pitch>
<step>G</step>
<octave>5</octave>
</pitch>
<notations>
<technical>
<fret>8</fret>
<string>2</string>
</technical>
</notations>
<voice>1</voice>
<duration>960</duration>
<type>quarter</type>
</note>
<note>
<pitch>
<step>A</step>
<octave>5</octave>
<alter>1</alter>
</pitch>
<notations>
<technical>
<fret>6</fret>
<string>1</string>
</technical>
</notations>
<voice>1</voice>
<duration>960</duration>
<type>quarter</type>
</note>
</measure>
<measure number="29">
<note>
<pitch>
<step>C</step>
<octave>5</octave>
<alter>1</alter>
</pitch>
<notations>
<technical>
<fret>2</fret>
<string>2</string>
</technical>
</notations>
<voice>1</voice>
<duration>960</duration>
<type>quarter</type>
</note>
<note>
<pitch>
<step>A</step>
<octave>5</octave>
</pitch>
<notations>
<technical>
<fret>5</fret>
<string>1</string>
</technical>
</notations>
<voice>1</voice>
<duration>960</duration>
<type>quarter</type>
</note>
<note>
<pitch>
<step>E</step>
<octave>5</octave>
</pitch>
<notations>
<technical>
<fret>5</fret>
<string>2</string>
</technical>
</notations>
<voice>1</voice>
<duration>960</duration>
<type>quarter</type>
</note>
<note>
<pitch>
<step>A</step>
<octave>5</octave>
</pitch>
<notations>
<technical>
<fret>5</fret>
<string>1</string>
</technical>
</notations>
<voice>1</voice>
<duration>960</duration>
<type>quarter</type>
</note>
</measure>
<measure number="30">
<note>
<pitch>
<step>D</step>
<octave>5</octave>
</pitch>
<notations>
<technical>
<fret>3</fret>
<string>2</string>
</technical>
</notations>
<voice>1</voice>
<duration>960</duration>
<type>quarter</type>
</note>
<note>
<pitch>
<step>A</step>
<octave>5</octave>
</pitch>
<notations>
<technical>
<fret>5</fret>
<string>1</string>
</technical>
</notations>
<voice>1</voice>
<duration>960</duration>
<type>quarter</type>
</note>
<note>
<pitch>
<step>E</step>
<octave>5</octave>
</pitch>
<notations>
<technical>
<fret>5</fret>
<string>2</string>
</technical>
</notations>
<voice>1</voice>
<duration>960</duration>
<type>quarter</type>
</note>
<note>
<pitch>
<step>A</step>
<octave>5</octave>
</pitch>
<notations>
<technical>
<fret>5</fret>
<string>1</string>
</technical>
</notations>
<voice>1</voice>
<duration>960</duration>
<type>quarter</type>
</note>
</measure>
<measure number="31">
<note>
<pitch>
<step>C</step>
<octave>5</octave>
<alter>1</alter>
</pitch>
<notations>
<technical>
<fret>2</fret>
<string>2</string>
</technical>
</notations>
<voice>1</voice>
<duration>960</duration>
<type>quarter</type>
</note>
<note>
<pitch>
<step>A</step>
<octave>5</octave>
</pitch>
<notations>
<technical>
<fret>5</fret>
<string>1</string>
</technical>
</notations>
<voice>1</voice>
<duration>960</duration>
<type>quarter</type>
</note>
<note>
<pitch>
<step>E</step>
<octave>5</octave>
</pitch>
<notations>
<technical>
<fret>5</fret>
<string>2</string>
</technical>
</notations>
<voice>1</voice>
<duration>960</duration>
<type>quarter</type>
</note>
<note>
<pitch>
<step>A</step>
<octave>5</octave>
</pitch>
<notations>
<technical>
<fret>5</fret>
<string>1</string>
</technical>
</notations>
<voice>1</voice>
<duration>960</duration>
<type>quarter</type>
</note>
</measure>
<measure number="32">
<note>
<pitch>
<step>B</step>
<octave>4</octave>
</pitch>
<notations>
<technical>
<fret>0</fret>
<string>2</string>
</technical>
</notations>
<voice>1</voice>
<duration>960</duration>
<type>quarter</type>
</note>
<note>
<pitch>
<step>A</step>
<octave>5</octave>
</pitch>
<notations>
<technical>
<fret>5</fret>
<string>1</string>
</technical>
</notations>
<voice>1</voice>
<duration>960</duration>
<type>quarter</type>
</note>
<note>
<pitch>
<step>C</step>
<octave>5</octave>
<alter>1</alter>
</pitch>
<notations>
<technical>
<fret>2</fret>
<string>2</string>
</technical>
</notations>
<voice>1</voice>
<duration>960</duration>
<type>quarter</type>
</note>
<note>
<pitch>
<step>A</step>
<octave>5</octave>
</pitch>
<notations>
<technical>
<fret>5</fret>
<string>1</string>
</technical>
</notations>
<voice>1</voice>
<duration>960</duration>
<type>quarter</type>
</note>
</measure>
</part>
<part id="P3">
<measure number="1">
<attributes>
<divisions>960</divisions>
<key>
<fifths>0</fifths>
<mode>major</mode>
</key>
<clef>
<sign>G</sign>
<line>2</line>
</clef>
<time>
<beats>4</beats>
<beat-type>4</beat-type>
</time>
<staff-details>
<staff-lines>4</staff-lines>
<staff-tuning line="1">
<tuning-step>E</tuning-step>
<tuning-octave>2</tuning-octave>
</staff-tuning>
<staff-tuning line="2">
<tuning-step>A</tuning-step>
<tuning-octave>2</tuning-octave>
</staff-tuning>
<staff-tuning line="3">
<tuning-step>D</tuning-step>
<tuning-octave>3</tuning-octave>
</staff-tuning>
<staff-tuning line="4">
<tuning-step>G</tuning-step>
<tuning-octave>3</tuning-octave>
</staff-tuning>
</staff-details>
</attributes>
<direction placement="above">
<sound tempo="200"/>
</direction>
<note>
<rest/>
<voice>1</voice>
<duration>3840</duration>
<type>whole</type>
</note>
</measure>
<measure number="2">
<note>
<rest/>
<voice>1</voice>
<duration>3840</duration>
<type>whole</type>
</note>
</measure>
<measure number="3">
<note>
<rest/>
<voice>1</voice>
<duration>3840</duration>
<type>whole</type>
</note>
</measure>
<measure number="4">
<note>
<rest/>
<voice>1</voice>
<duration>3840</duration>
<type>whole</type>
</note>
</measure>
<measure number="5">
<note>
<rest/>
<voice>1</voice>
<duration>3840</duration>
<type>whole</type>
</note>
</measure>
<measure number="6">
<note>
<rest/>
<voice>1</voice>
<duration>3840</duration>
<type>whole</type>
</note>
</measure>
<measure number="7">
<note>
<rest/>
<voice>1</voice>
<duration>3840</duration>
<type>whole</type>
</note>
</measure>
<measure number="8">
<note>
<rest/>
<voice>1</voice>
<duration>3840</duration>
<type>whole</type>
</note>
</measure>
<measure number="9">
<note>
<rest/>
<voice>1</voice>
<duration>3840</duration>
<type>whole</type>
</note>
</measure>
<measure number="10">
<note>
<rest/>
<voice>1</voice>
<duration>3840</duration>
<type>whole</type>
</note>
</measure>
<measure number="11">
<note>
<rest/>
<voice>1</voice>
<duration>3840</duration>
<type>whole</type>
</note>
</measure>
<measure number="12">
<note>
<rest/>
<voice>1</voice>
<duration>3840</duration>
<type>whole</type>
</note>
</measure>
<measure number="13">
<note>
<rest/>
<voice>1</voice>
<duration>3840</duration>
<type>whole</type>
</note>
</measure>
<measure number="14">
<note>
<rest/>
<voice>1</voice>
<duration>3840</duration>
<type>whole</type>
</note>
</measure>
<measure number="15">
<note>
<rest/>
<voice>1</voice>
<duration>3840</duration>
<type>whole</type>
</note>
</measure>
<measure number="16">
<note>
<rest/>
<voice>1</voice>
<duration>3840</duration>
<type>whole</type>
</note>
</measure>
<measure number="17">
<note>
<rest/>
<voice>1</voice>
<duration>3840</duration>
<type>whole</type>
</note>
</measure>
<measure number="18">
<note>
<rest/>
<voice>1</voice>
<duration>3840</duration>
<type>whole</type>
</note>
</measure>
<measure number="19">
<note>
<rest/>
<voice>1</voice>
<duration>3840</duration>
<type>whole</type>
</note>
</measure>
<measure number="20">
<note>
<rest/>
<voice>1</voice>
<duration>3840</duration>
<type>whole</type>
</note>
</measure>
<measure number="21">
<note>
<rest/>
<voice>1</voice>
<duration>3840</duration>
<type>whole</type>
</note>
</measure>
<measure number="22">
<note>
<rest/>
<voice>1</voice>
<duration>3840</duration>
<type>whole</type>
</note>
</measure>
<measure number="23">
<note>
<rest/>
<voice>1</voice>
<duration>3840</duration>
<type>whole</type>
</note>
</measure>
<measure number="24">
<note>
<rest/>
<voice>1</voice>
<duration>3840</duration>
<type>whole</type>
</note>
</measure>
<measure number="25">
<note>
<rest/>
<voice>1</voice>
<duration>3840</duration>
<type>whole</type>
</note>
</measure>
<measure number="26">
<note>
<rest/>
<voice>1</voice>
<duration>3840</duration>
<type>whole</type>
</note>
</measure>
<measure number="27">
<note>
<rest/>
<voice>1</voice>
<duration>3840</duration>
<type>whole</type>
</note>
</measure>
<measure number="28">
<note>
<rest/>
<voice>1</voice>
<duration>3840</duration>
<type>whole</type>
</note>
</measure>
<measure number="29">
<note>
<rest/>
<voice>1</voice>
<duration>3840</duration>
<type>whole</type>
</note>
</measure>
<measure number="30">
<note>
<rest/>
<voice>1</voice>
<duration>3840</duration>
<type>whole</type>
</note>
</measure>
<measure number="31">
<note>
<rest/>
<voice>1</voice>
<duration>3840</duration>
<type>whole</type>
</note>
</measure>
<measure number="32">
<note>
<rest/>
<voice>1</voice>
<duration>3840</duration>
<type>whole</type>
</note>
</measure>
</part>
</score-partwise>
